# MagicaVoxel @ Ephtracy

# group
o 

# material
mtllib 3rbit flos.mtl
usemtl palette

# normals
vn -1 0 0
vn 1 0 0
vn 0 0 1
vn 0 0 -1
vn 0 -1 0
vn 0 1 0

# texcoords
vt 0.955078 0.5
vt 0.982422 0.5
vt 0.994141 0.5

# verts
v 0.9 2 -1.4
v 0.9 2 -1.5
v 0.9 2 -2.4
v 0.9 2 -2.5
v 0.9 2.1 -1.4
v 0.9 2.1 -1.5
v 0.9 2.1 -2.4
v 0.9 2.1 -2.5
v 0.9 2.2 -1.4
v 0.9 2.2 -1.5
v 0.9 2.2 -2.4
v 0.9 2.2 -2.5
v 0.9 2.3 -1.5
v 0.9 2.3 -2.4
v 0.9 2.7 -1.5
v 0.9 2.7 -2.4
v 0.9 2.8 -1.4
v 0.9 2.8 -2.5
v 2.9 2 -1.4
v 2.9 2 -1.5
v 2.9 2 -2.4
v 2.9 2 -2.5
v 2.9 2.1 -1.4
v 2.9 2.1 -1.5
v 2.9 2.1 -2.4
v 2.9 2.1 -2.5
v 2.9 2.2 -1.4
v 2.9 2.2 -1.5
v 2.9 2.2 -2.4
v 2.9 2.2 -2.5
v 2.9 2.3 -1.4
v 2.9 2.3 -1.5
v 2.9 2.3 -2.4
v 2.9 2.3 -2.5
v 2.9 2.7 -1.4
v 2.9 2.7 -1.5
v 2.9 2.7 -2.4
v 2.9 2.7 -2.5
v 2.9 2.8 -1.4
v 2.9 2.8 -1.5
v 2.9 2.8 -2.4
v 2.9 2.8 -2.5
v 2.9 3 -1.5
v 2.9 3 -2.4
v 2.9 3.1 -1.4
v 2.9 3.1 -2.5
v 1 2 -1.4
v 1 2 -1.5
v 1 2 -2.4
v 1 2 -2.5
v 1 2.1 -1.4
v 1 2.1 -1.5
v 1 2.1 -2.4
v 1 2.1 -2.5
v 1 2.2 -1.4
v 1 2.2 -1.5
v 1 2.2 -2.4
v 1 2.2 -2.5
v 1 2.3 -1.4
v 1 2.3 -1.5
v 1 2.3 -2.4
v 1 2.3 -2.5
v 1 2.7 -1.4
v 1 2.7 -1.5
v 1 2.7 -2.4
v 1 2.7 -2.5
v 3 2 -1.4
v 3 2 -1.5
v 3 2 -2.4
v 3 2 -2.5
v 3 2.1 -1.4
v 3 2.1 -1.5
v 3 2.1 -2.4
v 3 2.1 -2.5
v 3 2.2 -1.4
v 3 2.2 -1.5
v 3 2.2 -2.4
v 3 2.2 -2.5
v 3 2.3 -1.5
v 3 2.3 -2.4
v 3 2.7 -1.5
v 3 2.7 -2.4
v 3 2.8 -1.5
v 3 2.8 -2.4
v 3 3 -1.5
v 3 3 -2.4
v 3 3.1 -1.4
v 3 3.1 -2.5
v 0.9 2 -1.4
v 0.9 2.1 -1.4
v 0.9 2.2 -1.4
v 0.9 2.8 -1.4
v 1 2 -1.4
v 1 2.1 -1.4
v 1 2.2 -1.4
v 1 2.3 -1.4
v 1 2.7 -1.4
v 2.9 2 -1.4
v 2.9 2.1 -1.4
v 2.9 2.2 -1.4
v 2.9 2.3 -1.4
v 2.9 2.7 -1.4
v 2.9 2.8 -1.4
v 2.9 3.1 -1.4
v 3 2 -1.4
v 3 2.1 -1.4
v 3 2.2 -1.4
v 3 3.1 -1.4
v 0.9 2 -2.4
v 0.9 2.1 -2.4
v 0.9 2.2 -2.4
v 0.9 2.3 -2.4
v 0.9 2.7 -2.4
v 1 2 -2.4
v 1 2.1 -2.4
v 1 2.2 -2.4
v 1 2.3 -2.4
v 1 2.7 -2.4
v 2.9 2 -2.4
v 2.9 2.1 -2.4
v 2.9 2.2 -2.4
v 2.9 2.3 -2.4
v 2.9 2.7 -2.4
v 2.9 2.8 -2.4
v 2.9 3 -2.4
v 3 2 -2.4
v 3 2.1 -2.4
v 3 2.2 -2.4
v 3 2.3 -2.4
v 3 2.7 -2.4
v 3 2.8 -2.4
v 3 3 -2.4
v 0.9 2 -1.5
v 0.9 2.1 -1.5
v 0.9 2.2 -1.5
v 0.9 2.3 -1.5
v 0.9 2.7 -1.5
v 1 2 -1.5
v 1 2.1 -1.5
v 1 2.2 -1.5
v 1 2.3 -1.5
v 1 2.7 -1.5
v 2.9 2 -1.5
v 2.9 2.1 -1.5
v 2.9 2.2 -1.5
v 2.9 2.3 -1.5
v 2.9 2.7 -1.5
v 2.9 2.8 -1.5
v 2.9 3 -1.5
v 3 2 -1.5
v 3 2.1 -1.5
v 3 2.2 -1.5
v 3 2.3 -1.5
v 3 2.7 -1.5
v 3 2.8 -1.5
v 3 3 -1.5
v 0.9 2 -2.5
v 0.9 2.1 -2.5
v 0.9 2.2 -2.5
v 0.9 2.8 -2.5
v 1 2 -2.5
v 1 2.1 -2.5
v 1 2.2 -2.5
v 1 2.3 -2.5
v 1 2.7 -2.5
v 2.9 2 -2.5
v 2.9 2.1 -2.5
v 2.9 2.2 -2.5
v 2.9 2.3 -2.5
v 2.9 2.7 -2.5
v 2.9 2.8 -2.5
v 2.9 3.1 -2.5
v 3 2 -2.5
v 3 2.1 -2.5
v 3 2.2 -2.5
v 3 3.1 -2.5
v 0.9 2 -1.4
v 1 2 -1.4
v 2.9 2 -1.4
v 3 2 -1.4
v 0.9 2 -1.5
v 1 2 -1.5
v 2.9 2 -1.5
v 3 2 -1.5
v 0.9 2 -2.4
v 1 2 -2.4
v 2.9 2 -2.4
v 3 2 -2.4
v 0.9 2 -2.5
v 1 2 -2.5
v 2.9 2 -2.5
v 3 2 -2.5
v 1 2.2 -1.4
v 2.9 2.2 -1.4
v 0.9 2.2 -1.5
v 1 2.2 -1.5
v 2.9 2.2 -1.5
v 3 2.2 -1.5
v 0.9 2.2 -2.4
v 1 2.2 -2.4
v 2.9 2.2 -2.4
v 3 2.2 -2.4
v 1 2.2 -2.5
v 2.9 2.2 -2.5
v 1 2.7 -1.4
v 2.9 2.7 -1.4
v 0.9 2.7 -1.5
v 1 2.7 -1.5
v 2.9 2.7 -1.5
v 3 2.7 -1.5
v 0.9 2.7 -2.4
v 1 2.7 -2.4
v 2.9 2.7 -2.4
v 3 2.7 -2.4
v 1 2.7 -2.5
v 2.9 2.7 -2.5
v 2.9 3 -1.5
v 3 3 -1.5
v 2.9 3 -2.4
v 3 3 -2.4
v 1 2.3 -1.4
v 2.9 2.3 -1.4
v 0.9 2.3 -1.5
v 1 2.3 -1.5
v 2.9 2.3 -1.5
v 3 2.3 -1.5
v 0.9 2.3 -2.4
v 1 2.3 -2.4
v 2.9 2.3 -2.4
v 3 2.3 -2.4
v 1 2.3 -2.5
v 2.9 2.3 -2.5
v 0.9 2.8 -1.4
v 2.9 2.8 -1.4
v 2.9 2.8 -1.5
v 3 2.8 -1.5
v 2.9 2.8 -2.4
v 3 2.8 -2.4
v 0.9 2.8 -2.5
v 2.9 2.8 -2.5
v 2.9 3.1 -1.4
v 3 3.1 -1.4
v 2.9 3.1 -2.5
v 3 3.1 -2.5

# faces
f 5/1/1 2/1/1 1/1/1
f 6/1/1 2/1/1 5/1/1
f 7/1/1 4/1/1 3/1/1
f 8/1/1 4/1/1 7/1/1
f 9/3/1 6/3/1 5/3/1
f 10/3/1 6/3/1 9/3/1
f 11/3/1 8/3/1 7/3/1
f 12/3/1 8/3/1 11/3/1
f 13/2/1 10/2/1 9/2/1
f 13/2/1 11/2/1 10/2/1
f 13/2/1 12/2/1 11/2/1
f 14/2/1 12/2/1 13/2/1
f 15/2/1 13/2/1 9/2/1
f 16/2/1 12/2/1 14/2/1
f 17/2/1 15/2/1 9/2/1
f 17/2/1 16/2/1 15/2/1
f 18/2/1 12/2/1 16/2/1
f 18/2/1 16/2/1 17/2/1
f 23/1/1 20/1/1 19/1/1
f 24/1/1 20/1/1 23/1/1
f 25/1/1 22/1/1 21/1/1
f 26/1/1 22/1/1 25/1/1
f 27/3/1 24/3/1 23/3/1
f 28/3/1 24/3/1 27/3/1
f 29/3/1 26/3/1 25/3/1
f 30/3/1 26/3/1 29/3/1
f 35/2/1 32/2/1 31/2/1
f 36/2/1 32/2/1 35/2/1
f 37/2/1 34/2/1 33/2/1
f 38/2/1 34/2/1 37/2/1
f 43/2/1 40/2/1 39/2/1
f 44/2/1 42/2/1 41/2/1
f 45/2/1 43/2/1 39/2/1
f 45/2/1 44/2/1 43/2/1
f 46/2/1 42/2/1 44/2/1
f 46/2/1 44/2/1 45/2/1
f 47/1/2 48/1/2 51/1/2
f 51/1/2 48/1/2 52/1/2
f 49/1/2 50/1/2 53/1/2
f 53/1/2 50/1/2 54/1/2
f 51/3/2 52/3/2 55/3/2
f 55/3/2 52/3/2 56/3/2
f 53/3/2 54/3/2 57/3/2
f 57/3/2 54/3/2 58/3/2
f 59/2/2 60/2/2 63/2/2
f 63/2/2 60/2/2 64/2/2
f 61/2/2 62/2/2 65/2/2
f 65/2/2 62/2/2 66/2/2
f 67/1/2 68/1/2 71/1/2
f 71/1/2 68/1/2 72/1/2
f 69/1/2 70/1/2 73/1/2
f 73/1/2 70/1/2 74/1/2
f 71/3/2 72/3/2 75/3/2
f 75/3/2 72/3/2 76/3/2
f 73/3/2 74/3/2 77/3/2
f 77/3/2 74/3/2 78/3/2
f 75/2/2 76/2/2 79/2/2
f 76/2/2 77/2/2 79/2/2
f 77/2/2 78/2/2 79/2/2
f 79/2/2 78/2/2 80/2/2
f 75/2/2 79/2/2 81/2/2
f 80/2/2 78/2/2 82/2/2
f 75/2/2 81/2/2 83/2/2
f 81/2/2 82/2/2 83/2/2
f 82/2/2 78/2/2 84/2/2
f 83/2/2 82/2/2 84/2/2
f 75/2/2 83/2/2 85/2/2
f 84/2/2 78/2/2 86/2/2
f 75/2/2 85/2/2 87/2/2
f 85/2/2 86/2/2 87/2/2
f 86/2/2 78/2/2 88/2/2
f 87/2/2 86/2/2 88/2/2
f 93/1/3 90/1/3 89/1/3
f 94/3/3 91/3/3 90/3/3
f 94/1/3 90/1/3 93/1/3
f 95/2/3 92/2/3 91/2/3
f 95/3/3 91/3/3 94/3/3
f 96/2/3 92/2/3 95/2/3
f 97/2/3 92/2/3 96/2/3
f 100/2/3 96/2/3 95/2/3
f 101/2/3 96/2/3 100/2/3
f 102/2/3 92/2/3 97/2/3
f 103/2/3 92/2/3 102/2/3
f 105/1/3 99/1/3 98/1/3
f 106/3/3 100/3/3 99/3/3
f 106/1/3 99/1/3 105/1/3
f 107/2/3 101/2/3 100/2/3
f 107/3/3 100/3/3 106/3/3
f 107/2/3 104/2/3 103/2/3
f 107/2/3 103/2/3 102/2/3
f 107/2/3 102/2/3 101/2/3
f 108/2/3 104/2/3 107/2/3
f 114/1/3 110/1/3 109/1/3
f 115/3/3 111/3/3 110/3/3
f 115/1/3 110/1/3 114/1/3
f 116/3/3 111/3/3 115/3/3
f 117/2/3 113/2/3 112/2/3
f 118/2/3 113/2/3 117/2/3
f 126/1/3 120/1/3 119/1/3
f 127/3/3 121/3/3 120/3/3
f 127/1/3 120/1/3 126/1/3
f 128/3/3 121/3/3 127/3/3
f 129/2/3 123/2/3 122/2/3
f 130/2/3 123/2/3 129/2/3
f 131/2/3 125/2/3 124/2/3
f 132/2/3 125/2/3 131/2/3
f 133/1/4 134/1/4 138/1/4
f 134/3/4 135/3/4 139/3/4
f 138/1/4 134/1/4 139/1/4
f 139/3/4 135/3/4 140/3/4
f 136/2/4 137/2/4 141/2/4
f 141/2/4 137/2/4 142/2/4
f 143/1/4 144/1/4 150/1/4
f 144/3/4 145/3/4 151/3/4
f 150/1/4 144/1/4 151/1/4
f 151/3/4 145/3/4 152/3/4
f 146/2/4 147/2/4 153/2/4
f 153/2/4 147/2/4 154/2/4
f 148/2/4 149/2/4 155/2/4
f 155/2/4 149/2/4 156/2/4
f 157/1/4 158/1/4 161/1/4
f 158/3/4 159/3/4 162/3/4
f 161/1/4 158/1/4 162/1/4
f 159/2/4 160/2/4 163/2/4
f 162/3/4 159/3/4 163/3/4
f 163/2/4 160/2/4 164/2/4
f 164/2/4 160/2/4 165/2/4
f 163/2/4 164/2/4 168/2/4
f 168/2/4 164/2/4 169/2/4
f 165/2/4 160/2/4 170/2/4
f 170/2/4 160/2/4 171/2/4
f 166/1/4 167/1/4 173/1/4
f 167/3/4 168/3/4 174/3/4
f 173/1/4 167/1/4 174/1/4
f 168/2/4 169/2/4 175/2/4
f 174/3/4 168/3/4 175/3/4
f 171/2/4 172/2/4 175/2/4
f 170/2/4 171/2/4 175/2/4
f 169/2/4 170/2/4 175/2/4
f 175/2/4 172/2/4 176/2/4
f 181/1/5 178/1/5 177/1/5
f 182/1/5 178/1/5 181/1/5
f 183/1/5 180/1/5 179/1/5
f 184/1/5 180/1/5 183/1/5
f 189/1/5 186/1/5 185/1/5
f 190/1/5 186/1/5 189/1/5
f 191/1/5 188/1/5 187/1/5
f 192/1/5 188/1/5 191/1/5
f 196/2/5 194/2/5 193/2/5
f 197/2/5 194/2/5 196/2/5
f 199/2/5 196/2/5 195/2/5
f 199/2/5 198/2/5 197/2/5
f 199/2/5 197/2/5 196/2/5
f 200/2/5 198/2/5 199/2/5
f 201/2/5 198/2/5 200/2/5
f 202/2/5 198/2/5 201/2/5
f 203/2/5 201/2/5 200/2/5
f 204/2/5 201/2/5 203/2/5
f 208/2/5 206/2/5 205/2/5
f 209/2/5 206/2/5 208/2/5
f 211/2/5 208/2/5 207/2/5
f 211/2/5 210/2/5 209/2/5
f 211/2/5 209/2/5 208/2/5
f 212/2/5 210/2/5 211/2/5
f 213/2/5 210/2/5 212/2/5
f 214/2/5 210/2/5 213/2/5
f 215/2/5 213/2/5 212/2/5
f 216/2/5 213/2/5 215/2/5
f 219/2/5 218/2/5 217/2/5
f 220/2/5 218/2/5 219/2/5
f 221/2/6 222/2/6 224/2/6
f 224/2/6 222/2/6 225/2/6
f 223/2/6 224/2/6 227/2/6
f 225/2/6 226/2/6 227/2/6
f 224/2/6 225/2/6 227/2/6
f 227/2/6 226/2/6 228/2/6
f 228/2/6 226/2/6 229/2/6
f 229/2/6 226/2/6 230/2/6
f 228/2/6 229/2/6 231/2/6
f 231/2/6 229/2/6 232/2/6
f 233/2/6 234/2/6 235/2/6
f 233/2/6 235/2/6 237/2/6
f 235/2/6 236/2/6 237/2/6
f 237/2/6 236/2/6 238/2/6
f 233/2/6 237/2/6 239/2/6
f 239/2/6 237/2/6 240/2/6
f 241/2/6 242/2/6 243/2/6
f 243/2/6 242/2/6 244/2/6
