# MagicaVoxel @ Ephtracy

# group
o 

# material
mtllib Desk.mtl
usemtl palette

# normals
vn -1 0 0
vn 1 0 0
vn 0 0 1
vn 0 0 -1
vn 0 -1 0
vn 0 1 0

# texcoords
vt 0.302734 0.5
vt 0.431641 0.5

# verts
v 0.1 3.4 -1.6
v 0.1 3.4 -2.5
v 0.1 3.6 -1.6
v 0.1 3.6 -2.5
v 0.2 2 -1.6
v 0.2 2 -2.5
v 0.2 3.4 -1.2
v 0.2 3.4 -1.6
v 0.2 3.4 -2.5
v 0.2 3.4 -2.9
v 0.2 3.6 -1.2
v 0.2 3.6 -1.6
v 0.2 3.6 -2.5
v 0.2 3.6 -2.9
v 0.3 2 -1.2
v 0.3 2 -1.6
v 0.3 2 -2.5
v 0.3 2 -2.9
v 0.3 3.4 -1
v 0.3 3.4 -1.2
v 0.3 3.4 -1.6
v 0.3 3.4 -2.5
v 0.3 3.4 -2.9
v 0.3 3.4 -3.1
v 0.3 3.6 -1
v 0.3 3.6 -1.2
v 0.3 3.6 -2.9
v 0.3 3.6 -3.1
v 0.4 2 -1
v 0.4 2 -1.2
v 0.4 2 -2.9
v 0.4 2 -3.1
v 0.4 3.4 -0.8
v 0.4 3.4 -1
v 0.4 3.4 -1.2
v 0.4 3.4 -2.9
v 0.4 3.4 -3.1
v 0.4 3.4 -3.3
v 0.4 3.6 -0.8
v 0.4 3.6 -1
v 0.4 3.6 -3.1
v 0.4 3.6 -3.3
v 0.5 2 -0.8
v 0.5 2 -1
v 0.5 2 -3.1
v 0.5 2 -3.3
v 0.5 3.4 -0.7
v 0.5 3.4 -0.8
v 0.5 3.4 -1
v 0.5 3.4 -3.1
v 0.5 3.4 -3.3
v 0.5 3.4 -3.4
v 0.5 3.6 -0.7
v 0.5 3.6 -0.8
v 0.5 3.6 -3.3
v 0.5 3.6 -3.4
v 0.6 2 -0.7
v 0.6 2 -0.8
v 0.6 2 -3.3
v 0.6 2 -3.4
v 0.6 3.4 -0.6
v 0.6 3.4 -0.7
v 0.6 3.4 -0.8
v 0.6 3.4 -3.3
v 0.6 3.4 -3.4
v 0.6 3.4 -3.5
v 0.6 3.6 -0.6
v 0.6 3.6 -0.7
v 0.6 3.6 -3.4
v 0.6 3.6 -3.5
v 0.7 2 -0.6
v 0.7 2 -0.7
v 0.7 2 -3.4
v 0.7 2 -3.5
v 0.7 3.4 -0.5
v 0.7 3.4 -0.6
v 0.7 3.4 -0.7
v 0.7 3.4 -3.4
v 0.7 3.4 -3.5
v 0.7 3.4 -3.6
v 0.7 3.6 -0.5
v 0.7 3.6 -0.6
v 0.7 3.6 -3.5
v 0.7 3.6 -3.6
v 0.8 2 -0.5
v 0.8 2 -0.6
v 0.8 2 -3.5
v 0.8 2 -3.6
v 0.8 3.4 -0.4
v 0.8 3.4 -0.5
v 0.8 3.4 -0.6
v 0.8 3.4 -3.5
v 0.8 3.4 -3.6
v 0.8 3.4 -3.7
v 0.8 3.6 -0.4
v 0.8 3.6 -0.5
v 0.8 3.6 -3.6
v 0.8 3.6 -3.7
v 0.9 2 -0.4
v 0.9 2 -0.5
v 0.9 2 -3.6
v 0.9 2 -3.7
v 0.9 3.4 -0.3
v 0.9 3.4 -0.4
v 0.9 3.4 -0.5
v 0.9 3.4 -3.6
v 0.9 3.4 -3.7
v 0.9 3.4 -3.8
v 0.9 3.6 -0.3
v 0.9 3.6 -0.4
v 0.9 3.6 -3.7
v 0.9 3.6 -3.8
v 1 2 -0.3
v 1 2 -0.4
v 1 2 -3.7
v 1 2 -3.8
v 1 3.4 -0.2
v 1 3.4 -0.3
v 1 3.4 -0.4
v 1 3.4 -3.7
v 1 3.4 -3.8
v 1 3.4 -3.9
v 1 3.6 -0.2
v 1 3.6 -0.3
v 1 3.6 -0.5
v 1 3.6 -3.4
v 1 3.6 -3.8
v 1 3.6 -3.9
v 1 3.7 -0.5
v 1 3.7 -3.4
v 1.1 2 -0.2
v 1.1 2 -0.3
v 1.1 2 -3.8
v 1.1 2 -3.9
v 1.1 3.4 -0.1
v 1.1 3.4 -0.2
v 1.1 3.4 -0.3
v 1.1 3.4 -3.8
v 1.1 3.4 -3.9
v 1.1 3.4 -4
v 1.1 3.6 -0.1
v 1.1 3.6 -0.2
v 1.1 3.6 -3.9
v 1.1 3.6 -4
v 1.2 2 -0.1
v 1.2 2 -0.2
v 1.2 2 -3.9
v 1.2 2 -4
v 1.2 3.4 -0.1
v 1.2 3.4 -0.2
v 1.2 3.4 -3.9
v 1.2 3.4 -4
v 1.3 3.4 0
v 1.3 3.4 -0.1
v 1.3 3.6 0
v 1.3 3.6 -0.1
v 1.4 2 0
v 1.4 2 -0.1
v 1.4 3.4 0
v 1.4 3.4 -0.1
v 1.1 3.2 -0.6
v 1.1 3.2 -3.3
v 1.1 3.5 -0.6
v 1.1 3.5 -3.3
v 1.1 3.7 -0.6
v 1.1 3.7 -3.3
v 2.4 2 0
v 2.4 2 -4
v 2.4 3.2 -0.6
v 2.4 3.2 -3.3
v 2.4 3.4 0
v 2.4 3.4 -0.6
v 2.4 3.4 -3.3
v 2.4 3.4 -4
v 2.4 3.6 0
v 2.4 3.6 -0.5
v 2.4 3.6 -3.4
v 2.4 3.6 -4
v 2.4 3.7 -0.5
v 2.4 3.7 -0.6
v 2.4 3.7 -3.3
v 2.4 3.7 -3.4
v 1.3 3.4 0
v 1.3 3.6 0
v 1.4 2 0
v 1.4 3.4 0
v 2.4 2 0
v 2.4 3.4 0
v 2.4 3.6 0
v 1.1 3.4 -0.1
v 1.1 3.6 -0.1
v 1.2 2 -0.1
v 1.2 3.4 -0.1
v 1.3 3.4 -0.1
v 1.3 3.6 -0.1
v 1.4 2 -0.1
v 1.4 3.4 -0.1
v 1 3.4 -0.2
v 1 3.6 -0.2
v 1.1 2 -0.2
v 1.1 3.4 -0.2
v 1.1 3.6 -0.2
v 1.2 2 -0.2
v 1.2 3.4 -0.2
v 0.9 3.4 -0.3
v 0.9 3.6 -0.3
v 1 2 -0.3
v 1 3.4 -0.3
v 1 3.6 -0.3
v 1.1 2 -0.3
v 1.1 3.4 -0.3
v 0.8 3.4 -0.4
v 0.8 3.6 -0.4
v 0.9 2 -0.4
v 0.9 3.4 -0.4
v 0.9 3.6 -0.4
v 1 2 -0.4
v 1 3.4 -0.4
v 0.7 3.4 -0.5
v 0.7 3.6 -0.5
v 0.8 2 -0.5
v 0.8 3.4 -0.5
v 0.8 3.6 -0.5
v 0.9 2 -0.5
v 0.9 3.4 -0.5
v 1 3.6 -0.5
v 1 3.7 -0.5
v 2.4 3.6 -0.5
v 2.4 3.7 -0.5
v 0.6 3.4 -0.6
v 0.6 3.6 -0.6
v 0.7 2 -0.6
v 0.7 3.4 -0.6
v 0.7 3.6 -0.6
v 0.8 2 -0.6
v 0.8 3.4 -0.6
v 0.5 3.4 -0.7
v 0.5 3.6 -0.7
v 0.6 2 -0.7
v 0.6 3.4 -0.7
v 0.6 3.6 -0.7
v 0.7 2 -0.7
v 0.7 3.4 -0.7
v 0.4 3.4 -0.8
v 0.4 3.6 -0.8
v 0.5 2 -0.8
v 0.5 3.4 -0.8
v 0.5 3.6 -0.8
v 0.6 2 -0.8
v 0.6 3.4 -0.8
v 0.3 3.4 -1
v 0.3 3.6 -1
v 0.4 2 -1
v 0.4 3.4 -1
v 0.4 3.6 -1
v 0.5 2 -1
v 0.5 3.4 -1
v 0.2 3.4 -1.2
v 0.2 3.6 -1.2
v 0.3 2 -1.2
v 0.3 3.4 -1.2
v 0.3 3.6 -1.2
v 0.4 2 -1.2
v 0.4 3.4 -1.2
v 0.1 3.4 -1.6
v 0.1 3.6 -1.6
v 0.2 2 -1.6
v 0.2 3.4 -1.6
v 0.2 3.6 -1.6
v 0.3 2 -1.6
v 0.3 3.4 -1.6
v 1.1 3.2 -3.3
v 1.1 3.5 -3.3
v 1.1 3.7 -3.3
v 2.3 3.4 -3.3
v 2.3 3.5 -3.3
v 2.4 3.2 -3.3
v 2.4 3.4 -3.3
v 2.4 3.7 -3.3
v 1.1 3.2 -0.6
v 1.1 3.5 -0.6
v 1.1 3.7 -0.6
v 2.3 3.4 -0.6
v 2.3 3.5 -0.6
v 2.4 3.2 -0.6
v 2.4 3.4 -0.6
v 2.4 3.7 -0.6
v 0.1 3.4 -2.5
v 0.1 3.6 -2.5
v 0.2 2 -2.5
v 0.2 3.4 -2.5
v 0.2 3.6 -2.5
v 0.3 2 -2.5
v 0.3 3.4 -2.5
v 0.2 3.4 -2.9
v 0.2 3.6 -2.9
v 0.3 2 -2.9
v 0.3 3.4 -2.9
v 0.3 3.6 -2.9
v 0.4 2 -2.9
v 0.4 3.4 -2.9
v 0.3 3.4 -3.1
v 0.3 3.6 -3.1
v 0.4 2 -3.1
v 0.4 3.4 -3.1
v 0.4 3.6 -3.1
v 0.5 2 -3.1
v 0.5 3.4 -3.1
v 0.4 3.4 -3.3
v 0.4 3.6 -3.3
v 0.5 2 -3.3
v 0.5 3.4 -3.3
v 0.5 3.6 -3.3
v 0.6 2 -3.3
v 0.6 3.4 -3.3
v 0.5 3.4 -3.4
v 0.5 3.6 -3.4
v 0.6 2 -3.4
v 0.6 3.4 -3.4
v 0.6 3.6 -3.4
v 0.7 2 -3.4
v 0.7 3.4 -3.4
v 1 3.6 -3.4
v 1 3.7 -3.4
v 2.4 3.6 -3.4
v 2.4 3.7 -3.4
v 0.6 3.4 -3.5
v 0.6 3.6 -3.5
v 0.7 2 -3.5
v 0.7 3.4 -3.5
v 0.7 3.6 -3.5
v 0.8 2 -3.5
v 0.8 3.4 -3.5
v 0.7 3.4 -3.6
v 0.7 3.6 -3.6
v 0.8 2 -3.6
v 0.8 3.4 -3.6
v 0.8 3.6 -3.6
v 0.9 2 -3.6
v 0.9 3.4 -3.6
v 0.8 3.4 -3.7
v 0.8 3.6 -3.7
v 0.9 2 -3.7
v 0.9 3.4 -3.7
v 0.9 3.6 -3.7
v 1 2 -3.7
v 1 3.4 -3.7
v 0.9 3.4 -3.8
v 0.9 3.6 -3.8
v 1 2 -3.8
v 1 3.4 -3.8
v 1 3.6 -3.8
v 1.1 2 -3.8
v 1.1 3.4 -3.8
v 1 3.4 -3.9
v 1 3.6 -3.9
v 1.1 2 -3.9
v 1.1 3.4 -3.9
v 1.1 3.6 -3.9
v 1.2 2 -3.9
v 1.2 3.4 -3.9
v 1.1 3.4 -4
v 1.1 3.6 -4
v 1.2 2 -4
v 1.2 3.4 -4
v 2.4 2 -4
v 2.4 3.4 -4
v 2.4 3.6 -4
v 1.4 2 0
v 2.4 2 0
v 1.2 2 -0.1
v 1.4 2 -0.1
v 1.1 2 -0.2
v 1.2 2 -0.2
v 1 2 -0.3
v 1.1 2 -0.3
v 0.9 2 -0.4
v 1 2 -0.4
v 0.8 2 -0.5
v 0.9 2 -0.5
v 0.7 2 -0.6
v 0.8 2 -0.6
v 0.6 2 -0.7
v 0.7 2 -0.7
v 0.5 2 -0.8
v 0.6 2 -0.8
v 0.4 2 -1
v 0.5 2 -1
v 0.3 2 -1.2
v 0.4 2 -1.2
v 0.2 2 -1.6
v 0.3 2 -1.6
v 0.2 2 -2.5
v 0.3 2 -2.5
v 0.3 2 -2.9
v 0.4 2 -2.9
v 0.4 2 -3.1
v 0.5 2 -3.1
v 0.5 2 -3.3
v 0.6 2 -3.3
v 0.6 2 -3.4
v 0.7 2 -3.4
v 0.7 2 -3.5
v 0.8 2 -3.5
v 0.8 2 -3.6
v 0.9 2 -3.6
v 0.9 2 -3.7
v 1 2 -3.7
v 1 2 -3.8
v 1.1 2 -3.8
v 1.1 2 -3.9
v 1.2 2 -3.9
v 1.2 2 -4
v 2.4 2 -4
v 1.3 3.4 0
v 1.4 3.4 0
v 1.1 3.4 -0.1
v 1.2 3.4 -0.1
v 1.3 3.4 -0.1
v 1.4 3.4 -0.1
v 1 3.4 -0.2
v 1.1 3.4 -0.2
v 1.2 3.4 -0.2
v 0.9 3.4 -0.3
v 1 3.4 -0.3
v 1.1 3.4 -0.3
v 0.8 3.4 -0.4
v 0.9 3.4 -0.4
v 1 3.4 -0.4
v 0.7 3.4 -0.5
v 0.8 3.4 -0.5
v 0.9 3.4 -0.5
v 0.6 3.4 -0.6
v 0.7 3.4 -0.6
v 0.8 3.4 -0.6
v 0.5 3.4 -0.7
v 0.6 3.4 -0.7
v 0.7 3.4 -0.7
v 0.4 3.4 -0.8
v 0.5 3.4 -0.8
v 0.6 3.4 -0.8
v 0.3 3.4 -1
v 0.4 3.4 -1
v 0.5 3.4 -1
v 0.2 3.4 -1.2
v 0.3 3.4 -1.2
v 0.4 3.4 -1.2
v 0.1 3.4 -1.6
v 0.2 3.4 -1.6
v 0.3 3.4 -1.6
v 0.1 3.4 -2.5
v 0.2 3.4 -2.5
v 0.3 3.4 -2.5
v 0.2 3.4 -2.9
v 0.3 3.4 -2.9
v 0.4 3.4 -2.9
v 0.3 3.4 -3.1
v 0.4 3.4 -3.1
v 0.5 3.4 -3.1
v 0.4 3.4 -3.3
v 0.5 3.4 -3.3
v 0.6 3.4 -3.3
v 0.5 3.4 -3.4
v 0.6 3.4 -3.4
v 0.7 3.4 -3.4
v 0.6 3.4 -3.5
v 0.7 3.4 -3.5
v 0.8 3.4 -3.5
v 0.7 3.4 -3.6
v 0.8 3.4 -3.6
v 0.9 3.4 -3.6
v 0.8 3.4 -3.7
v 0.9 3.4 -3.7
v 1 3.4 -3.7
v 0.9 3.4 -3.8
v 1 3.4 -3.8
v 1.1 3.4 -3.8
v 1 3.4 -3.9
v 1.1 3.4 -3.9
v 1.2 3.4 -3.9
v 1.1 3.4 -4
v 1.2 3.4 -4
v 1.1 3.2 -0.6
v 2.4 3.2 -0.6
v 1.1 3.2 -3.3
v 2.4 3.2 -3.3
v 1.3 3.6 0
v 2.4 3.6 0
v 1.1 3.6 -0.1
v 1.3 3.6 -0.1
v 1 3.6 -0.2
v 1.1 3.6 -0.2
v 0.9 3.6 -0.3
v 1 3.6 -0.3
v 0.8 3.6 -0.4
v 0.9 3.6 -0.4
v 0.7 3.6 -0.5
v 0.8 3.6 -0.5
v 1 3.6 -0.5
v 2.4 3.6 -0.5
v 0.6 3.6 -0.6
v 0.7 3.6 -0.6
v 0.5 3.6 -0.7
v 0.6 3.6 -0.7
v 0.4 3.6 -0.8
v 0.5 3.6 -0.8
v 0.3 3.6 -1
v 0.4 3.6 -1
v 0.2 3.6 -1.2
v 0.3 3.6 -1.2
v 0.1 3.6 -1.6
v 0.2 3.6 -1.6
v 0.1 3.6 -2.5
v 0.2 3.6 -2.5
v 0.2 3.6 -2.9
v 0.3 3.6 -2.9
v 0.3 3.6 -3.1
v 0.4 3.6 -3.1
v 0.4 3.6 -3.3
v 0.5 3.6 -3.3
v 0.5 3.6 -3.4
v 0.6 3.6 -3.4
v 1 3.6 -3.4
v 2.4 3.6 -3.4
v 0.6 3.6 -3.5
v 0.7 3.6 -3.5
v 0.7 3.6 -3.6
v 0.8 3.6 -3.6
v 0.8 3.6 -3.7
v 0.9 3.6 -3.7
v 0.9 3.6 -3.8
v 1 3.6 -3.8
v 1 3.6 -3.9
v 1.1 3.6 -3.9
v 1.1 3.6 -4
v 2.4 3.6 -4
v 1 3.7 -0.5
v 2.4 3.7 -0.5
v 1.1 3.7 -0.6
v 2.4 3.7 -0.6
v 1.1 3.7 -3.3
v 2.4 3.7 -3.3
v 1 3.7 -3.4
v 2.4 3.7 -3.4

# faces
f 3/2/1 2/2/1 1/2/1
f 4/2/1 2/2/1 3/2/1
f 8/1/1 6/1/1 5/1/1
f 9/1/1 6/1/1 8/1/1
f 11/2/1 8/2/1 7/2/1
f 12/2/1 8/2/1 11/2/1
f 13/2/1 10/2/1 9/2/1
f 14/2/1 10/2/1 13/2/1
f 20/1/1 16/1/1 15/1/1
f 21/1/1 16/1/1 20/1/1
f 22/1/1 18/1/1 17/1/1
f 23/1/1 18/1/1 22/1/1
f 25/2/1 20/2/1 19/2/1
f 26/2/1 20/2/1 25/2/1
f 27/2/1 24/2/1 23/2/1
f 28/2/1 24/2/1 27/2/1
f 34/1/1 30/1/1 29/1/1
f 35/1/1 30/1/1 34/1/1
f 36/1/1 32/1/1 31/1/1
f 37/1/1 32/1/1 36/1/1
f 39/2/1 34/2/1 33/2/1
f 40/2/1 34/2/1 39/2/1
f 41/2/1 38/2/1 37/2/1
f 42/2/1 38/2/1 41/2/1
f 48/1/1 44/1/1 43/1/1
f 49/1/1 44/1/1 48/1/1
f 50/1/1 46/1/1 45/1/1
f 51/1/1 46/1/1 50/1/1
f 53/2/1 48/2/1 47/2/1
f 54/2/1 48/2/1 53/2/1
f 55/2/1 52/2/1 51/2/1
f 56/2/1 52/2/1 55/2/1
f 62/1/1 58/1/1 57/1/1
f 63/1/1 58/1/1 62/1/1
f 64/1/1 60/1/1 59/1/1
f 65/1/1 60/1/1 64/1/1
f 67/2/1 62/2/1 61/2/1
f 68/2/1 62/2/1 67/2/1
f 69/2/1 66/2/1 65/2/1
f 70/2/1 66/2/1 69/2/1
f 76/1/1 72/1/1 71/1/1
f 77/1/1 72/1/1 76/1/1
f 78/1/1 74/1/1 73/1/1
f 79/1/1 74/1/1 78/1/1
f 81/2/1 76/2/1 75/2/1
f 82/2/1 76/2/1 81/2/1
f 83/2/1 80/2/1 79/2/1
f 84/2/1 80/2/1 83/2/1
f 90/1/1 86/1/1 85/1/1
f 91/1/1 86/1/1 90/1/1
f 92/1/1 88/1/1 87/1/1
f 93/1/1 88/1/1 92/1/1
f 95/2/1 90/2/1 89/2/1
f 96/2/1 90/2/1 95/2/1
f 97/2/1 94/2/1 93/2/1
f 98/2/1 94/2/1 97/2/1
f 104/1/1 100/1/1 99/1/1
f 105/1/1 100/1/1 104/1/1
f 106/1/1 102/1/1 101/1/1
f 107/1/1 102/1/1 106/1/1
f 109/2/1 104/2/1 103/2/1
f 110/2/1 104/2/1 109/2/1
f 111/2/1 108/2/1 107/2/1
f 112/2/1 108/2/1 111/2/1
f 118/1/1 114/1/1 113/1/1
f 119/1/1 114/1/1 118/1/1
f 120/1/1 116/1/1 115/1/1
f 121/1/1 116/1/1 120/1/1
f 123/2/1 118/2/1 117/2/1
f 124/2/1 118/2/1 123/2/1
f 127/2/1 122/2/1 121/2/1
f 128/2/1 122/2/1 127/2/1
f 129/2/1 126/2/1 125/2/1
f 130/2/1 126/2/1 129/2/1
f 136/1/1 132/1/1 131/1/1
f 137/1/1 132/1/1 136/1/1
f 138/1/1 134/1/1 133/1/1
f 139/1/1 134/1/1 138/1/1
f 141/2/1 136/2/1 135/2/1
f 142/2/1 136/2/1 141/2/1
f 143/2/1 140/2/1 139/2/1
f 144/2/1 140/2/1 143/2/1
f 149/1/1 146/1/1 145/1/1
f 150/1/1 146/1/1 149/1/1
f 151/1/1 148/1/1 147/1/1
f 152/1/1 148/1/1 151/1/1
f 155/2/1 154/2/1 153/2/1
f 156/2/1 154/2/1 155/2/1
f 159/1/1 158/1/1 157/1/1
f 160/1/1 158/1/1 159/1/1
f 161/1/2 162/1/2 163/1/2
f 163/1/2 162/1/2 164/1/2
f 163/2/2 164/2/2 165/2/2
f 165/2/2 164/2/2 166/2/2
f 167/1/2 168/1/2 169/1/2
f 169/1/2 168/1/2 170/1/2
f 167/1/2 169/1/2 171/1/2
f 171/1/2 169/1/2 172/1/2
f 170/1/2 168/1/2 173/1/2
f 173/1/2 168/1/2 174/1/2
f 171/2/2 172/2/2 175/2/2
f 175/2/2 172/2/2 176/2/2
f 173/2/2 174/2/2 177/2/2
f 177/2/2 174/2/2 178/2/2
f 176/2/2 172/2/2 179/2/2
f 179/2/2 172/2/2 180/2/2
f 173/2/2 177/2/2 181/2/2
f 181/2/2 177/2/2 182/2/2
f 186/2/3 184/2/3 183/2/3
f 187/1/3 186/1/3 185/1/3
f 188/2/3 184/2/3 186/2/3
f 188/1/3 186/1/3 187/1/3
f 189/2/3 184/2/3 188/2/3
f 193/2/3 191/2/3 190/2/3
f 194/2/3 191/2/3 193/2/3
f 194/1/3 193/1/3 192/1/3
f 195/2/3 191/2/3 194/2/3
f 196/1/3 194/1/3 192/1/3
f 197/1/3 194/1/3 196/1/3
f 201/2/3 199/2/3 198/2/3
f 202/2/3 199/2/3 201/2/3
f 203/1/3 201/1/3 200/1/3
f 204/1/3 201/1/3 203/1/3
f 208/2/3 206/2/3 205/2/3
f 209/2/3 206/2/3 208/2/3
f 210/1/3 208/1/3 207/1/3
f 211/1/3 208/1/3 210/1/3
f 215/2/3 213/2/3 212/2/3
f 216/2/3 213/2/3 215/2/3
f 217/1/3 215/1/3 214/1/3
f 218/1/3 215/1/3 217/1/3
f 222/2/3 220/2/3 219/2/3
f 223/2/3 220/2/3 222/2/3
f 224/1/3 222/1/3 221/1/3
f 225/1/3 222/1/3 224/1/3
f 228/2/3 227/2/3 226/2/3
f 229/2/3 227/2/3 228/2/3
f 233/2/3 231/2/3 230/2/3
f 234/2/3 231/2/3 233/2/3
f 235/1/3 233/1/3 232/1/3
f 236/1/3 233/1/3 235/1/3
f 240/2/3 238/2/3 237/2/3
f 241/2/3 238/2/3 240/2/3
f 242/1/3 240/1/3 239/1/3
f 243/1/3 240/1/3 242/1/3
f 247/2/3 245/2/3 244/2/3
f 248/2/3 245/2/3 247/2/3
f 249/1/3 247/1/3 246/1/3
f 250/1/3 247/1/3 249/1/3
f 254/2/3 252/2/3 251/2/3
f 255/2/3 252/2/3 254/2/3
f 256/1/3 254/1/3 253/1/3
f 257/1/3 254/1/3 256/1/3
f 261/2/3 259/2/3 258/2/3
f 262/2/3 259/2/3 261/2/3
f 263/1/3 261/1/3 260/1/3
f 264/1/3 261/1/3 263/1/3
f 268/2/3 266/2/3 265/2/3
f 269/2/3 266/2/3 268/2/3
f 270/1/3 268/1/3 267/1/3
f 271/1/3 268/1/3 270/1/3
f 275/1/3 273/1/3 272/1/3
f 276/2/3 274/2/3 273/2/3
f 276/1/3 273/1/3 275/1/3
f 277/1/3 275/1/3 272/1/3
f 278/2/3 276/2/3 275/2/3
f 278/1/3 275/1/3 277/1/3
f 279/2/3 274/2/3 276/2/3
f 279/2/3 276/2/3 278/2/3
f 280/1/4 281/1/4 283/1/4
f 281/2/4 282/2/4 284/2/4
f 283/1/4 281/1/4 284/1/4
f 280/1/4 283/1/4 285/1/4
f 283/2/4 284/2/4 286/2/4
f 285/1/4 283/1/4 286/1/4
f 284/2/4 282/2/4 287/2/4
f 286/2/4 284/2/4 287/2/4
f 288/2/4 289/2/4 291/2/4
f 291/2/4 289/2/4 292/2/4
f 290/1/4 291/1/4 293/1/4
f 293/1/4 291/1/4 294/1/4
f 295/2/4 296/2/4 298/2/4
f 298/2/4 296/2/4 299/2/4
f 297/1/4 298/1/4 300/1/4
f 300/1/4 298/1/4 301/1/4
f 302/2/4 303/2/4 305/2/4
f 305/2/4 303/2/4 306/2/4
f 304/1/4 305/1/4 307/1/4
f 307/1/4 305/1/4 308/1/4
f 309/2/4 310/2/4 312/2/4
f 312/2/4 310/2/4 313/2/4
f 311/1/4 312/1/4 314/1/4
f 314/1/4 312/1/4 315/1/4
f 316/2/4 317/2/4 319/2/4
f 319/2/4 317/2/4 320/2/4
f 318/1/4 319/1/4 321/1/4
f 321/1/4 319/1/4 322/1/4
f 323/2/4 324/2/4 325/2/4
f 325/2/4 324/2/4 326/2/4
f 327/2/4 328/2/4 330/2/4
f 330/2/4 328/2/4 331/2/4
f 329/1/4 330/1/4 332/1/4
f 332/1/4 330/1/4 333/1/4
f 334/2/4 335/2/4 337/2/4
f 337/2/4 335/2/4 338/2/4
f 336/1/4 337/1/4 339/1/4
f 339/1/4 337/1/4 340/1/4
f 341/2/4 342/2/4 344/2/4
f 344/2/4 342/2/4 345/2/4
f 343/1/4 344/1/4 346/1/4
f 346/1/4 344/1/4 347/1/4
f 348/2/4 349/2/4 351/2/4
f 351/2/4 349/2/4 352/2/4
f 350/1/4 351/1/4 353/1/4
f 353/1/4 351/1/4 354/1/4
f 355/2/4 356/2/4 358/2/4
f 358/2/4 356/2/4 359/2/4
f 357/1/4 358/1/4 360/1/4
f 360/1/4 358/1/4 361/1/4
f 362/2/4 363/2/4 365/2/4
f 364/1/4 365/1/4 366/1/4
f 365/2/4 363/2/4 367/2/4
f 366/1/4 365/1/4 367/1/4
f 367/2/4 363/2/4 368/2/4
f 372/1/5 370/1/5 369/1/5
f 374/1/5 372/1/5 371/1/5
f 376/1/5 374/1/5 373/1/5
f 378/1/5 376/1/5 375/1/5
f 380/1/5 378/1/5 377/1/5
f 382/1/5 380/1/5 379/1/5
f 384/1/5 382/1/5 381/1/5
f 386/1/5 384/1/5 383/1/5
f 388/1/5 386/1/5 385/1/5
f 390/1/5 388/1/5 387/1/5
f 392/1/5 390/1/5 389/1/5
f 393/1/5 392/1/5 391/1/5
f 394/1/5 390/1/5 392/1/5
f 394/1/5 392/1/5 393/1/5
f 395/1/5 390/1/5 394/1/5
f 396/1/5 388/1/5 390/1/5
f 396/1/5 390/1/5 395/1/5
f 397/1/5 388/1/5 396/1/5
f 398/1/5 386/1/5 388/1/5
f 398/1/5 388/1/5 397/1/5
f 399/1/5 386/1/5 398/1/5
f 400/1/5 384/1/5 386/1/5
f 400/1/5 386/1/5 399/1/5
f 401/1/5 384/1/5 400/1/5
f 402/1/5 382/1/5 384/1/5
f 402/1/5 384/1/5 401/1/5
f 403/1/5 382/1/5 402/1/5
f 404/1/5 380/1/5 382/1/5
f 404/1/5 382/1/5 403/1/5
f 405/1/5 380/1/5 404/1/5
f 406/1/5 378/1/5 380/1/5
f 406/1/5 380/1/5 405/1/5
f 407/1/5 378/1/5 406/1/5
f 408/1/5 376/1/5 378/1/5
f 408/1/5 378/1/5 407/1/5
f 409/1/5 376/1/5 408/1/5
f 410/1/5 374/1/5 376/1/5
f 410/1/5 376/1/5 409/1/5
f 411/1/5 374/1/5 410/1/5
f 412/1/5 372/1/5 374/1/5
f 412/1/5 374/1/5 411/1/5
f 413/1/5 372/1/5 412/1/5
f 414/1/5 370/1/5 372/1/5
f 414/1/5 372/1/5 413/1/5
f 419/2/5 416/2/5 415/2/5
f 420/2/5 416/2/5 419/2/5
f 422/2/5 418/2/5 417/2/5
f 423/2/5 418/2/5 422/2/5
f 425/2/5 422/2/5 421/2/5
f 426/2/5 422/2/5 425/2/5
f 428/2/5 425/2/5 424/2/5
f 429/2/5 425/2/5 428/2/5
f 431/2/5 428/2/5 427/2/5
f 432/2/5 428/2/5 431/2/5
f 434/2/5 431/2/5 430/2/5
f 435/2/5 431/2/5 434/2/5
f 437/2/5 434/2/5 433/2/5
f 438/2/5 434/2/5 437/2/5
f 440/2/5 437/2/5 436/2/5
f 441/2/5 437/2/5 440/2/5
f 443/2/5 440/2/5 439/2/5
f 444/2/5 440/2/5 443/2/5
f 446/2/5 443/2/5 442/2/5
f 447/2/5 443/2/5 446/2/5
f 449/2/5 446/2/5 445/2/5
f 450/2/5 446/2/5 449/2/5
f 451/2/5 449/2/5 448/2/5
f 452/2/5 449/2/5 451/2/5
f 454/2/5 453/2/5 452/2/5
f 455/2/5 453/2/5 454/2/5
f 457/2/5 456/2/5 455/2/5
f 458/2/5 456/2/5 457/2/5
f 460/2/5 459/2/5 458/2/5
f 461/2/5 459/2/5 460/2/5
f 463/2/5 462/2/5 461/2/5
f 464/2/5 462/2/5 463/2/5
f 466/2/5 465/2/5 464/2/5
f 467/2/5 465/2/5 466/2/5
f 469/2/5 468/2/5 467/2/5
f 470/2/5 468/2/5 469/2/5
f 472/2/5 471/2/5 470/2/5
f 473/2/5 471/2/5 472/2/5
f 475/2/5 474/2/5 473/2/5
f 476/2/5 474/2/5 475/2/5
f 478/2/5 477/2/5 476/2/5
f 479/2/5 477/2/5 478/2/5
f 481/2/5 480/2/5 479/2/5
f 482/2/5 480/2/5 481/2/5
f 483/1/6 484/1/6 485/1/6
f 485/1/6 484/1/6 486/1/6
f 487/2/6 488/2/6 490/2/6
f 489/2/6 490/2/6 492/2/6
f 491/2/6 492/2/6 494/2/6
f 493/2/6 494/2/6 496/2/6
f 495/2/6 496/2/6 498/2/6
f 494/2/6 492/2/6 499/2/6
f 496/2/6 494/2/6 499/2/6
f 498/2/6 496/2/6 499/2/6
f 490/2/6 488/2/6 500/2/6
f 499/2/6 492/2/6 500/2/6
f 492/2/6 490/2/6 500/2/6
f 498/2/6 499/2/6 502/2/6
f 497/2/6 498/2/6 502/2/6
f 501/2/6 502/2/6 504/2/6
f 503/2/6 504/2/6 506/2/6
f 505/2/6 506/2/6 508/2/6
f 507/2/6 508/2/6 510/2/6
f 509/2/6 510/2/6 512/2/6
f 511/2/6 512/2/6 513/2/6
f 512/2/6 510/2/6 514/2/6
f 513/2/6 512/2/6 514/2/6
f 514/2/6 510/2/6 515/2/6
f 510/2/6 508/2/6 516/2/6
f 515/2/6 510/2/6 516/2/6
f 516/2/6 508/2/6 517/2/6
f 508/2/6 506/2/6 518/2/6
f 517/2/6 508/2/6 518/2/6
f 518/2/6 506/2/6 519/2/6
f 506/2/6 504/2/6 520/2/6
f 519/2/6 506/2/6 520/2/6
f 520/2/6 504/2/6 521/2/6
f 504/2/6 502/2/6 522/2/6
f 521/2/6 504/2/6 522/2/6
f 502/2/6 499/2/6 523/2/6
f 522/2/6 502/2/6 523/2/6
f 523/2/6 524/2/6 525/2/6
f 522/2/6 523/2/6 525/2/6
f 525/2/6 524/2/6 526/2/6
f 526/2/6 524/2/6 527/2/6
f 527/2/6 524/2/6 528/2/6
f 528/2/6 524/2/6 529/2/6
f 529/2/6 524/2/6 530/2/6
f 530/2/6 524/2/6 531/2/6
f 531/2/6 524/2/6 532/2/6
f 532/2/6 524/2/6 533/2/6
f 533/2/6 524/2/6 534/2/6
f 534/2/6 524/2/6 535/2/6
f 535/2/6 524/2/6 536/2/6
f 537/2/6 538/2/6 539/2/6
f 539/2/6 538/2/6 540/2/6
f 537/2/6 539/2/6 541/2/6
f 537/2/6 541/2/6 543/2/6
f 541/2/6 542/2/6 543/2/6
f 543/2/6 542/2/6 544/2/6
