# MagicaVoxel @ Ephtracy

# group
o 

# material
mtllib kashaf.mtl
usemtl palette

# normals
vn -1 0 0
vn 1 0 0
vn 0 0 1
vn 0 0 -1
vn 0 -1 0
vn 0 1 0

# texcoords
vt 0.482422 0.5
vt 0.994141 0.5

# verts
v 1.7 2 -1.8
v 1.7 2 -2.1
v 1.7 2.3 -1.8
v 1.7 2.3 -2.1
v 2 2.3 -1.9
v 2 2.3 -2
v 2 2.4 -1.9
v 2 2.4 -2
v 2.2 2 -1.8
v 2.2 2 -2.1
v 2.2 2.3 -1.8
v 2.2 2.3 -1.9
v 2.2 2.3 -2
v 2.2 2.3 -2.1
v 2.2 2.4 -1.9
v 2.2 2.4 -2
v 1.7 2 -1.8
v 1.7 2.3 -1.8
v 1.8 2 -1.8
v 1.8 2.3 -1.8
v 2.2 2 -1.8
v 2.2 2.3 -1.8
v 2 2.3 -1.9
v 2 2.4 -1.9
v 2.2 2.3 -1.9
v 2.2 2.4 -1.9
v 2 2.3 -2
v 2 2.4 -2
v 2.2 2.3 -2
v 2.2 2.4 -2
v 1.7 2 -2.1
v 1.7 2.3 -2.1
v 1.8 2 -2.1
v 1.8 2.3 -2.1
v 2.2 2 -2.1
v 2.2 2.3 -2.1
v 1.7 2 -1.8
v 1.8 2 -1.8
v 2.2 2 -1.8
v 1.7 2 -2.1
v 1.8 2 -2.1
v 2.2 2 -2.1
v 1.7 2.3 -1.8
v 1.8 2.3 -1.8
v 2.2 2.3 -1.8
v 2 2.3 -1.9
v 2.2 2.3 -1.9
v 2 2.3 -2
v 2.2 2.3 -2
v 1.7 2.3 -2.1
v 1.8 2.3 -2.1
v 2.2 2.3 -2.1
v 2 2.4 -1.9
v 2.2 2.4 -1.9
v 2 2.4 -2
v 2.2 2.4 -2

# faces
f 3/1/1 2/1/1 1/1/1
f 4/1/1 2/1/1 3/1/1
f 7/2/1 6/2/1 5/2/1
f 8/2/1 6/2/1 7/2/1
f 9/2/2 10/2/2 11/2/2
f 11/2/2 10/2/2 12/2/2
f 12/2/2 10/2/2 13/2/2
f 13/2/2 10/2/2 14/2/2
f 12/2/2 13/2/2 15/2/2
f 15/2/2 13/2/2 16/2/2
f 19/1/3 18/1/3 17/1/3
f 20/1/3 18/1/3 19/1/3
f 21/2/3 20/2/3 19/2/3
f 22/2/3 20/2/3 21/2/3
f 25/2/3 24/2/3 23/2/3
f 26/2/3 24/2/3 25/2/3
f 27/2/4 28/2/4 29/2/4
f 29/2/4 28/2/4 30/2/4
f 31/1/4 32/1/4 33/1/4
f 33/1/4 32/1/4 34/1/4
f 33/2/4 34/2/4 35/2/4
f 35/2/4 34/2/4 36/2/4
f 40/1/5 38/1/5 37/1/5
f 41/2/5 39/2/5 38/2/5
f 41/1/5 38/1/5 40/1/5
f 42/2/5 39/2/5 41/2/5
f 44/2/6 45/2/6 46/2/6
f 46/2/6 45/2/6 47/2/6
f 44/2/6 46/2/6 48/2/6
f 43/1/6 44/1/6 50/1/6
f 48/2/6 49/2/6 51/2/6
f 50/1/6 44/1/6 51/1/6
f 44/2/6 48/2/6 51/2/6
f 51/2/6 49/2/6 52/2/6
f 53/2/6 54/2/6 55/2/6
f 55/2/6 54/2/6 56/2/6
