# MagicaVoxel @ Ephtracy

# group
o 

# material
mtllib Keypad.mtl
usemtl palette

# normals
vn -1 0 0
vn 1 0 0
vn 0 0 1
vn 0 0 -1
vn 0 -1 0
vn 0 1 0

# texcoords
vt 0.623047 0.5
vt 0.931641 0.5
vt 0.966797 0.5
vt 0.986328 0.5

# verts
v 1.6 3.9 -3.8
v 1.6 3.9 -4
v 1.6 5 -3.8
v 1.6 5 -4
v 1.8 4 -3.7
v 1.8 4 -3.8
v 1.8 4.1 -3.7
v 1.8 4.1 -3.8
v 1.8 4.2 -3.7
v 1.8 4.2 -3.8
v 1.8 4.3 -3.7
v 1.8 4.3 -3.8
v 1.8 4.4 -3.7
v 1.8 4.4 -3.8
v 1.8 4.5 -3.7
v 1.8 4.5 -3.8
v 2 4 -3.7
v 2 4 -3.8
v 2 4.1 -3.7
v 2 4.1 -3.8
v 2 4.2 -3.7
v 2 4.2 -3.8
v 2 4.3 -3.7
v 2 4.3 -3.8
v 2 4.4 -3.7
v 2 4.4 -3.8
v 2 4.5 -3.7
v 2 4.5 -3.8
v 2.2 4 -3.7
v 2.2 4 -3.8
v 2.2 4.1 -3.7
v 2.2 4.1 -3.8
v 2.2 4.2 -3.7
v 2.2 4.2 -3.8
v 2.2 4.3 -3.7
v 2.2 4.3 -3.8
v 2.2 4.4 -3.7
v 2.2 4.4 -3.8
v 2.2 4.5 -3.7
v 2.2 4.5 -3.8
v 2.4 4.6 -3.8
v 2.4 4.6 -3.9
v 2.4 4.9 -3.8
v 2.4 4.9 -3.9
v 1.7 4.6 -3.8
v 1.7 4.6 -3.9
v 1.7 4.9 -3.8
v 1.7 4.9 -3.9
v 1.9 4 -3.7
v 1.9 4 -3.8
v 1.9 4.1 -3.7
v 1.9 4.1 -3.8
v 1.9 4.2 -3.7
v 1.9 4.2 -3.8
v 1.9 4.3 -3.7
v 1.9 4.3 -3.8
v 1.9 4.4 -3.7
v 1.9 4.4 -3.8
v 1.9 4.5 -3.7
v 1.9 4.5 -3.8
v 2.1 4 -3.7
v 2.1 4 -3.8
v 2.1 4.1 -3.7
v 2.1 4.1 -3.8
v 2.1 4.2 -3.7
v 2.1 4.2 -3.8
v 2.1 4.3 -3.7
v 2.1 4.3 -3.8
v 2.1 4.4 -3.7
v 2.1 4.4 -3.8
v 2.1 4.5 -3.7
v 2.1 4.5 -3.8
v 2.3 4 -3.7
v 2.3 4 -3.8
v 2.3 4.1 -3.7
v 2.3 4.1 -3.8
v 2.3 4.2 -3.7
v 2.3 4.2 -3.8
v 2.3 4.3 -3.7
v 2.3 4.3 -3.8
v 2.3 4.4 -3.7
v 2.3 4.4 -3.8
v 2.3 4.5 -3.7
v 2.3 4.5 -3.8
v 2.5 3.9 -3.8
v 2.5 3.9 -4
v 2.5 5 -3.8
v 2.5 5 -4
v 1.8 4 -3.7
v 1.8 4.1 -3.7
v 1.8 4.2 -3.7
v 1.8 4.3 -3.7
v 1.8 4.4 -3.7
v 1.8 4.5 -3.7
v 1.9 4 -3.7
v 1.9 4.1 -3.7
v 1.9 4.2 -3.7
v 1.9 4.3 -3.7
v 1.9 4.4 -3.7
v 1.9 4.5 -3.7
v 2 4 -3.7
v 2 4.1 -3.7
v 2 4.2 -3.7
v 2 4.3 -3.7
v 2 4.4 -3.7
v 2 4.5 -3.7
v 2.1 4 -3.7
v 2.1 4.1 -3.7
v 2.1 4.2 -3.7
v 2.1 4.3 -3.7
v 2.1 4.4 -3.7
v 2.1 4.5 -3.7
v 2.2 4 -3.7
v 2.2 4.1 -3.7
v 2.2 4.2 -3.7
v 2.2 4.3 -3.7
v 2.2 4.4 -3.7
v 2.2 4.5 -3.7
v 2.3 4 -3.7
v 2.3 4.1 -3.7
v 2.3 4.2 -3.7
v 2.3 4.3 -3.7
v 2.3 4.4 -3.7
v 2.3 4.5 -3.7
v 1.6 3.9 -3.8
v 1.6 5 -3.8
v 1.7 4.6 -3.8
v 1.7 4.9 -3.8
v 1.8 4 -3.8
v 1.8 4.1 -3.8
v 1.8 4.2 -3.8
v 1.8 4.3 -3.8
v 1.8 4.4 -3.8
v 1.8 4.5 -3.8
v 1.9 4 -3.8
v 1.9 4.1 -3.8
v 1.9 4.2 -3.8
v 1.9 4.3 -3.8
v 1.9 4.4 -3.8
v 1.9 4.5 -3.8
v 2 4 -3.8
v 2 4.1 -3.8
v 2 4.2 -3.8
v 2 4.3 -3.8
v 2 4.4 -3.8
v 2 4.5 -3.8
v 2.1 4 -3.8
v 2.1 4.1 -3.8
v 2.1 4.2 -3.8
v 2.1 4.3 -3.8
v 2.1 4.4 -3.8
v 2.1 4.5 -3.8
v 2.2 4 -3.8
v 2.2 4.1 -3.8
v 2.2 4.2 -3.8
v 2.2 4.3 -3.8
v 2.2 4.4 -3.8
v 2.2 4.5 -3.8
v 2.3 4 -3.8
v 2.3 4.1 -3.8
v 2.3 4.2 -3.8
v 2.3 4.3 -3.8
v 2.3 4.4 -3.8
v 2.3 4.5 -3.8
v 2.4 4.6 -3.8
v 2.4 4.9 -3.8
v 2.5 3.9 -3.8
v 2.5 5 -3.8
v 1.7 4.6 -3.9
v 1.7 4.9 -3.9
v 2.4 4.6 -3.9
v 2.4 4.9 -3.9
v 1.6 3.9 -4
v 1.6 5 -4
v 1.7 4.6 -4
v 1.7 4.9 -4
v 2.4 4.6 -4
v 2.4 4.9 -4
v 2.5 3.9 -4
v 2.5 5 -4
v 1.6 3.9 -3.8
v 2.5 3.9 -3.8
v 1.6 3.9 -4
v 2.5 3.9 -4
v 1.8 4 -3.7
v 1.9 4 -3.7
v 2 4 -3.7
v 2.1 4 -3.7
v 2.2 4 -3.7
v 2.3 4 -3.7
v 1.8 4 -3.8
v 1.9 4 -3.8
v 2 4 -3.8
v 2.1 4 -3.8
v 2.2 4 -3.8
v 2.3 4 -3.8
v 1.8 4.2 -3.7
v 1.9 4.2 -3.7
v 2 4.2 -3.7
v 2.1 4.2 -3.7
v 2.2 4.2 -3.7
v 2.3 4.2 -3.7
v 1.8 4.2 -3.8
v 1.9 4.2 -3.8
v 2 4.2 -3.8
v 2.1 4.2 -3.8
v 2.2 4.2 -3.8
v 2.3 4.2 -3.8
v 1.8 4.4 -3.7
v 1.9 4.4 -3.7
v 2 4.4 -3.7
v 2.1 4.4 -3.7
v 2.2 4.4 -3.7
v 2.3 4.4 -3.7
v 1.8 4.4 -3.8
v 1.9 4.4 -3.8
v 2 4.4 -3.8
v 2.1 4.4 -3.8
v 2.2 4.4 -3.8
v 2.3 4.4 -3.8
v 1.7 4.9 -3.8
v 2.4 4.9 -3.8
v 1.7 4.9 -3.9
v 2.4 4.9 -3.9
v 1.8 4.1 -3.7
v 1.9 4.1 -3.7
v 2 4.1 -3.7
v 2.1 4.1 -3.7
v 2.2 4.1 -3.7
v 2.3 4.1 -3.7
v 1.8 4.1 -3.8
v 1.9 4.1 -3.8
v 2 4.1 -3.8
v 2.1 4.1 -3.8
v 2.2 4.1 -3.8
v 2.3 4.1 -3.8
v 1.8 4.3 -3.7
v 1.9 4.3 -3.7
v 2 4.3 -3.7
v 2.1 4.3 -3.7
v 2.2 4.3 -3.7
v 2.3 4.3 -3.7
v 1.8 4.3 -3.8
v 1.9 4.3 -3.8
v 2 4.3 -3.8
v 2.1 4.3 -3.8
v 2.2 4.3 -3.8
v 2.3 4.3 -3.8
v 1.8 4.5 -3.7
v 1.9 4.5 -3.7
v 2 4.5 -3.7
v 2.1 4.5 -3.7
v 2.2 4.5 -3.7
v 2.3 4.5 -3.7
v 1.8 4.5 -3.8
v 1.9 4.5 -3.8
v 2 4.5 -3.8
v 2.1 4.5 -3.8
v 2.2 4.5 -3.8
v 2.3 4.5 -3.8
v 1.7 4.6 -3.8
v 2.4 4.6 -3.8
v 1.7 4.6 -3.9
v 2.4 4.6 -3.9
v 1.6 5 -3.8
v 2.5 5 -3.8
v 1.6 5 -4
v 2.5 5 -4

# faces
f 3/3/1 2/3/1 1/3/1
f 4/3/1 2/3/1 3/3/1
f 7/4/1 6/4/1 5/4/1
f 8/4/1 6/4/1 7/4/1
f 11/4/1 10/4/1 9/4/1
f 12/4/1 10/4/1 11/4/1
f 15/4/1 14/4/1 13/4/1
f 16/4/1 14/4/1 15/4/1
f 19/4/1 18/4/1 17/4/1
f 20/4/1 18/4/1 19/4/1
f 23/4/1 22/4/1 21/4/1
f 24/4/1 22/4/1 23/4/1
f 27/4/1 26/4/1 25/4/1
f 28/4/1 26/4/1 27/4/1
f 31/4/1 30/4/1 29/4/1
f 32/4/1 30/4/1 31/4/1
f 35/4/1 34/4/1 33/4/1
f 36/4/1 34/4/1 35/4/1
f 39/4/1 38/4/1 37/4/1
f 40/4/1 38/4/1 39/4/1
f 43/3/1 42/3/1 41/3/1
f 44/3/1 42/3/1 43/3/1
f 45/3/2 46/3/2 47/3/2
f 47/3/2 46/3/2 48/3/2
f 49/4/2 50/4/2 51/4/2
f 51/4/2 50/4/2 52/4/2
f 53/4/2 54/4/2 55/4/2
f 55/4/2 54/4/2 56/4/2
f 57/4/2 58/4/2 59/4/2
f 59/4/2 58/4/2 60/4/2
f 61/4/2 62/4/2 63/4/2
f 63/4/2 62/4/2 64/4/2
f 65/4/2 66/4/2 67/4/2
f 67/4/2 66/4/2 68/4/2
f 69/4/2 70/4/2 71/4/2
f 71/4/2 70/4/2 72/4/2
f 73/4/2 74/4/2 75/4/2
f 75/4/2 74/4/2 76/4/2
f 77/4/2 78/4/2 79/4/2
f 79/4/2 78/4/2 80/4/2
f 81/4/2 82/4/2 83/4/2
f 83/4/2 82/4/2 84/4/2
f 85/3/2 86/3/2 87/3/2
f 87/3/2 86/3/2 88/3/2
f 95/4/3 90/4/3 89/4/3
f 96/4/3 90/4/3 95/4/3
f 97/4/3 92/4/3 91/4/3
f 98/4/3 92/4/3 97/4/3
f 99/4/3 94/4/3 93/4/3
f 100/4/3 94/4/3 99/4/3
f 107/4/3 102/4/3 101/4/3
f 108/4/3 102/4/3 107/4/3
f 109/4/3 104/4/3 103/4/3
f 110/4/3 104/4/3 109/4/3
f 111/4/3 106/4/3 105/4/3
f 112/4/3 106/4/3 111/4/3
f 119/4/3 114/4/3 113/4/3
f 120/4/3 114/4/3 119/4/3
f 121/4/3 116/4/3 115/4/3
f 122/4/3 116/4/3 121/4/3
f 123/4/3 118/4/3 117/4/3
f 124/4/3 118/4/3 123/4/3
f 127/3/3 126/3/3 125/3/3
f 128/3/3 126/3/3 127/3/3
f 129/3/3 127/3/3 125/3/3
f 130/3/3 127/3/3 129/3/3
f 131/3/3 127/3/3 130/3/3
f 132/3/3 127/3/3 131/3/3
f 133/3/3 127/3/3 132/3/3
f 134/3/3 127/3/3 133/3/3
f 135/3/3 129/3/3 125/3/3
f 136/3/3 131/3/3 130/3/3
f 137/3/3 131/3/3 136/3/3
f 138/3/3 133/3/3 132/3/3
f 139/3/3 133/3/3 138/3/3
f 140/3/3 127/3/3 134/3/3
f 141/3/3 139/3/3 138/3/3
f 141/3/3 140/3/3 139/3/3
f 141/3/3 137/3/3 136/3/3
f 141/3/3 135/3/3 125/3/3
f 141/3/3 138/3/3 137/3/3
f 141/3/3 136/3/3 135/3/3
f 142/3/3 140/3/3 141/3/3
f 143/3/3 140/3/3 142/3/3
f 144/3/3 140/3/3 143/3/3
f 145/3/3 140/3/3 144/3/3
f 146/3/3 127/3/3 140/3/3
f 146/3/3 140/3/3 145/3/3
f 147/3/3 141/3/3 125/3/3
f 148/3/3 143/3/3 142/3/3
f 149/3/3 143/3/3 148/3/3
f 150/3/3 145/3/3 144/3/3
f 151/3/3 145/3/3 150/3/3
f 152/3/3 127/3/3 146/3/3
f 153/3/3 149/3/3 148/3/3
f 153/3/3 152/3/3 151/3/3
f 153/3/3 151/3/3 150/3/3
f 153/3/3 147/3/3 125/3/3
f 153/3/3 150/3/3 149/3/3
f 153/3/3 148/3/3 147/3/3
f 154/3/3 152/3/3 153/3/3
f 155/3/3 152/3/3 154/3/3
f 156/3/3 152/3/3 155/3/3
f 157/3/3 152/3/3 156/3/3
f 158/3/3 127/3/3 152/3/3
f 158/3/3 152/3/3 157/3/3
f 159/3/3 153/3/3 125/3/3
f 160/3/3 155/3/3 154/3/3
f 161/3/3 155/3/3 160/3/3
f 162/3/3 157/3/3 156/3/3
f 163/3/3 157/3/3 162/3/3
f 164/3/3 127/3/3 158/3/3
f 165/3/3 161/3/3 160/3/3
f 165/3/3 164/3/3 163/3/3
f 165/3/3 127/3/3 164/3/3
f 165/3/3 163/3/3 162/3/3
f 165/3/3 162/3/3 161/3/3
f 165/3/3 160/3/3 159/3/3
f 166/3/3 126/3/3 128/3/3
f 167/3/3 165/3/3 159/3/3
f 167/3/3 166/3/3 165/3/3
f 167/3/3 159/3/3 125/3/3
f 168/3/3 126/3/3 166/3/3
f 168/3/3 166/3/3 167/3/3
f 171/1/3 170/1/3 169/1/3
f 172/1/3 170/1/3 171/1/3
f 173/3/4 174/3/4 175/3/4
f 175/3/4 174/3/4 176/3/4
f 173/3/4 175/3/4 177/3/4
f 175/1/4 176/1/4 177/1/4
f 176/3/4 174/3/4 178/3/4
f 177/1/4 176/1/4 178/1/4
f 173/3/4 177/3/4 179/3/4
f 177/3/4 178/3/4 179/3/4
f 178/3/4 174/3/4 180/3/4
f 179/3/4 178/3/4 180/3/4
f 183/3/5 182/3/5 181/3/5
f 184/3/5 182/3/5 183/3/5
f 191/4/5 186/4/5 185/4/5
f 192/4/5 186/4/5 191/4/5
f 193/4/5 188/4/5 187/4/5
f 194/4/5 188/4/5 193/4/5
f 195/4/5 190/4/5 189/4/5
f 196/4/5 190/4/5 195/4/5
f 203/4/5 198/4/5 197/4/5
f 204/4/5 198/4/5 203/4/5
f 205/4/5 200/4/5 199/4/5
f 206/4/5 200/4/5 205/4/5
f 207/4/5 202/4/5 201/4/5
f 208/4/5 202/4/5 207/4/5
f 215/4/5 210/4/5 209/4/5
f 216/4/5 210/4/5 215/4/5
f 217/4/5 212/4/5 211/4/5
f 218/4/5 212/4/5 217/4/5
f 219/4/5 214/4/5 213/4/5
f 220/4/5 214/4/5 219/4/5
f 223/3/5 222/3/5 221/3/5
f 224/3/5 222/3/5 223/3/5
f 225/4/6 226/4/6 231/4/6
f 231/4/6 226/4/6 232/4/6
f 227/4/6 228/4/6 233/4/6
f 233/4/6 228/4/6 234/4/6
f 229/4/6 230/4/6 235/4/6
f 235/4/6 230/4/6 236/4/6
f 237/4/6 238/4/6 243/4/6
f 243/4/6 238/4/6 244/4/6
f 239/4/6 240/4/6 245/4/6
f 245/4/6 240/4/6 246/4/6
f 241/4/6 242/4/6 247/4/6
f 247/4/6 242/4/6 248/4/6
f 249/4/6 250/4/6 255/4/6
f 255/4/6 250/4/6 256/4/6
f 251/4/6 252/4/6 257/4/6
f 257/4/6 252/4/6 258/4/6
f 253/4/6 254/4/6 259/4/6
f 259/4/6 254/4/6 260/4/6
f 261/3/6 262/3/6 263/3/6
f 263/3/6 262/3/6 264/3/6
f 265/3/6 266/3/6 267/3/6
f 267/3/6 266/3/6 268/3/6
